<mxfile host="app.diagrams.net" agent="Mozilla/5.0 (Macintosh; Intel Mac OS X 10_15_7) AppleWebKit/537.36 (KHTML, like Gecko) Chrome/126.0.0.0 Safari/537.36" version="24.7.5">
  <diagram name="Page-1" id="yCGViApSBdYG1aRVPk9y">
    <mxGraphModel dx="762" dy="694" grid="1" gridSize="10" guides="1" tooltips="1" connect="1" arrows="1" fold="1" page="1" pageScale="1" pageWidth="850" pageHeight="1100" math="0" shadow="0">
      <root>
        <mxCell id="0" />
        <mxCell id="1" parent="0" />
        <mxCell id="Hf8WnXUXcwpd4nh3hcgf-3" style="edgeStyle=orthogonalEdgeStyle;rounded=0;orthogonalLoop=1;jettySize=auto;html=1;exitX=0.5;exitY=1;exitDx=0;exitDy=0;entryX=0.5;entryY=0;entryDx=0;entryDy=0;" edge="1" parent="1" source="Hf8WnXUXcwpd4nh3hcgf-1" target="Hf8WnXUXcwpd4nh3hcgf-2">
          <mxGeometry relative="1" as="geometry" />
        </mxCell>
        <mxCell id="Hf8WnXUXcwpd4nh3hcgf-1" value="Redmine API&amp;nbsp;" style="rounded=1;whiteSpace=wrap;html=1;" vertex="1" parent="1">
          <mxGeometry x="365" y="30" width="120" height="60" as="geometry" />
        </mxCell>
        <mxCell id="Hf8WnXUXcwpd4nh3hcgf-37" style="edgeStyle=none;rounded=0;orthogonalLoop=1;jettySize=auto;html=1;exitX=0.5;exitY=1;exitDx=0;exitDy=0;entryX=0.5;entryY=0;entryDx=0;entryDy=0;" edge="1" parent="1" source="Hf8WnXUXcwpd4nh3hcgf-2" target="Hf8WnXUXcwpd4nh3hcgf-36">
          <mxGeometry relative="1" as="geometry" />
        </mxCell>
        <mxCell id="Hf8WnXUXcwpd4nh3hcgf-38" style="edgeStyle=none;rounded=0;orthogonalLoop=1;jettySize=auto;html=1;exitX=0.5;exitY=1;exitDx=0;exitDy=0;entryX=0.5;entryY=0;entryDx=0;entryDy=0;" edge="1" parent="1" source="Hf8WnXUXcwpd4nh3hcgf-2" target="Hf8WnXUXcwpd4nh3hcgf-4">
          <mxGeometry relative="1" as="geometry" />
        </mxCell>
        <mxCell id="Hf8WnXUXcwpd4nh3hcgf-2" value="get" style="rhombus;whiteSpace=wrap;html=1;" vertex="1" parent="1">
          <mxGeometry x="385" y="130" width="80" height="80" as="geometry" />
        </mxCell>
        <mxCell id="Hf8WnXUXcwpd4nh3hcgf-40" style="edgeStyle=none;rounded=0;orthogonalLoop=1;jettySize=auto;html=1;exitX=0.5;exitY=1;exitDx=0;exitDy=0;entryX=0.5;entryY=0;entryDx=0;entryDy=0;" edge="1" parent="1" source="Hf8WnXUXcwpd4nh3hcgf-4" target="Hf8WnXUXcwpd4nh3hcgf-6">
          <mxGeometry relative="1" as="geometry">
            <mxPoint x="420" y="360" as="targetPoint" />
          </mxGeometry>
        </mxCell>
        <mxCell id="Hf8WnXUXcwpd4nh3hcgf-4" value="Issues" style="rounded=1;whiteSpace=wrap;html=1;" vertex="1" parent="1">
          <mxGeometry x="290" y="260" width="120" height="60" as="geometry" />
        </mxCell>
        <mxCell id="Hf8WnXUXcwpd4nh3hcgf-13" style="edgeStyle=orthogonalEdgeStyle;rounded=0;orthogonalLoop=1;jettySize=auto;html=1;exitX=0.5;exitY=1;exitDx=0;exitDy=0;" edge="1" parent="1" source="Hf8WnXUXcwpd4nh3hcgf-6">
          <mxGeometry relative="1" as="geometry">
            <mxPoint x="425" y="490" as="targetPoint" />
          </mxGeometry>
        </mxCell>
        <mxCell id="Hf8WnXUXcwpd4nh3hcgf-6" value="if issue Deadtime !=&lt;div&gt;NULL &amp;amp; !in&lt;/div&gt;&lt;div&gt;DB:&lt;/div&gt;" style="rhombus;whiteSpace=wrap;html=1;" vertex="1" parent="1">
          <mxGeometry x="383" y="360" width="85" height="90" as="geometry" />
        </mxCell>
        <mxCell id="Hf8WnXUXcwpd4nh3hcgf-15" value="" style="shape=cylinder3;whiteSpace=wrap;html=1;boundedLbl=1;backgroundOutline=1;size=15;" vertex="1" parent="1">
          <mxGeometry x="410" y="490" width="60" height="80" as="geometry" />
        </mxCell>
        <mxCell id="Hf8WnXUXcwpd4nh3hcgf-23" style="edgeStyle=orthogonalEdgeStyle;rounded=0;orthogonalLoop=1;jettySize=auto;html=1;exitX=0.5;exitY=1;exitDx=0;exitDy=0;exitPerimeter=0;entryX=0.5;entryY=0;entryDx=0;entryDy=0;" edge="1" parent="1" source="Hf8WnXUXcwpd4nh3hcgf-16" target="Hf8WnXUXcwpd4nh3hcgf-24">
          <mxGeometry relative="1" as="geometry">
            <mxPoint x="425" y="640" as="targetPoint" />
          </mxGeometry>
        </mxCell>
        <mxCell id="Hf8WnXUXcwpd4nh3hcgf-43" style="edgeStyle=none;rounded=0;orthogonalLoop=1;jettySize=auto;html=1;exitX=0;exitY=0;exitDx=0;exitDy=52.5;exitPerimeter=0;entryX=1;entryY=0.5;entryDx=0;entryDy=0;" edge="1" parent="1" source="Hf8WnXUXcwpd4nh3hcgf-16" target="Hf8WnXUXcwpd4nh3hcgf-18">
          <mxGeometry relative="1" as="geometry" />
        </mxCell>
        <mxCell id="Hf8WnXUXcwpd4nh3hcgf-16" value="DB" style="shape=cylinder3;whiteSpace=wrap;html=1;boundedLbl=1;backgroundOutline=1;size=15;" vertex="1" parent="1">
          <mxGeometry x="395" y="500" width="60" height="80" as="geometry" />
        </mxCell>
        <mxCell id="Hf8WnXUXcwpd4nh3hcgf-17" value="IssueID" style="ellipse;whiteSpace=wrap;html=1;" vertex="1" parent="1">
          <mxGeometry x="280" y="460" width="70" height="50" as="geometry" />
        </mxCell>
        <mxCell id="Hf8WnXUXcwpd4nh3hcgf-18" value="Deadtime" style="ellipse;whiteSpace=wrap;html=1;" vertex="1" parent="1">
          <mxGeometry x="270" y="530" width="70" height="50" as="geometry" />
        </mxCell>
        <mxCell id="Hf8WnXUXcwpd4nh3hcgf-21" value="time of last comment where Team ID != 255" style="ellipse;whiteSpace=wrap;html=1;" vertex="1" parent="1">
          <mxGeometry x="520" y="440" width="110" height="75" as="geometry" />
        </mxCell>
        <mxCell id="Hf8WnXUXcwpd4nh3hcgf-25" style="edgeStyle=orthogonalEdgeStyle;rounded=0;orthogonalLoop=1;jettySize=auto;html=1;exitX=1;exitY=0.5;exitDx=0;exitDy=0;" edge="1" parent="1" source="Hf8WnXUXcwpd4nh3hcgf-24" target="Hf8WnXUXcwpd4nh3hcgf-26">
          <mxGeometry relative="1" as="geometry">
            <mxPoint x="530" y="710" as="targetPoint" />
          </mxGeometry>
        </mxCell>
        <mxCell id="Hf8WnXUXcwpd4nh3hcgf-24" value="Vue" style="shape=parallelogram;perimeter=parallelogramPerimeter;whiteSpace=wrap;html=1;fixedSize=1;" vertex="1" parent="1">
          <mxGeometry x="365" y="680" width="120" height="60" as="geometry" />
        </mxCell>
        <mxCell id="Hf8WnXUXcwpd4nh3hcgf-26" value="Time since last comment where TeamID != 255" style="shape=parallelogram;perimeter=parallelogramPerimeter;whiteSpace=wrap;html=1;fixedSize=1;" vertex="1" parent="1">
          <mxGeometry x="540" y="680" width="120" height="60" as="geometry" />
        </mxCell>
        <mxCell id="Hf8WnXUXcwpd4nh3hcgf-27" value="" style="rounded=1;whiteSpace=wrap;html=1;" vertex="1" parent="1">
          <mxGeometry x="25" y="20" width="45" height="20" as="geometry" />
        </mxCell>
        <mxCell id="Hf8WnXUXcwpd4nh3hcgf-28" value="" style="ellipse;whiteSpace=wrap;html=1;" vertex="1" parent="1">
          <mxGeometry x="25" y="100" width="45" height="30" as="geometry" />
        </mxCell>
        <mxCell id="Hf8WnXUXcwpd4nh3hcgf-29" value="" style="shape=parallelogram;perimeter=parallelogramPerimeter;whiteSpace=wrap;html=1;fixedSize=1;" vertex="1" parent="1">
          <mxGeometry x="17.5" y="150" width="60" height="20" as="geometry" />
        </mxCell>
        <mxCell id="Hf8WnXUXcwpd4nh3hcgf-30" value="" style="rhombus;whiteSpace=wrap;html=1;" vertex="1" parent="1">
          <mxGeometry x="27.5" y="50" width="40" height="40" as="geometry" />
        </mxCell>
        <mxCell id="Hf8WnXUXcwpd4nh3hcgf-31" value="Frontend" style="text;html=1;align=center;verticalAlign=middle;whiteSpace=wrap;rounded=0;" vertex="1" parent="1">
          <mxGeometry x="77.5" y="145" width="60" height="30" as="geometry" />
        </mxCell>
        <mxCell id="Hf8WnXUXcwpd4nh3hcgf-32" value="DB Attributes" style="text;html=1;align=center;verticalAlign=middle;whiteSpace=wrap;rounded=0;" vertex="1" parent="1">
          <mxGeometry x="77.5" y="100" width="60" height="30" as="geometry" />
        </mxCell>
        <mxCell id="Hf8WnXUXcwpd4nh3hcgf-33" value="Backend" style="text;html=1;align=center;verticalAlign=middle;whiteSpace=wrap;rounded=0;" vertex="1" parent="1">
          <mxGeometry x="77.5" y="55" width="60" height="30" as="geometry" />
        </mxCell>
        <mxCell id="Hf8WnXUXcwpd4nh3hcgf-34" value="Virtual Objects" style="text;html=1;align=center;verticalAlign=middle;whiteSpace=wrap;rounded=0;" vertex="1" parent="1">
          <mxGeometry x="77.5" y="15" width="60" height="30" as="geometry" />
        </mxCell>
        <mxCell id="Hf8WnXUXcwpd4nh3hcgf-39" style="edgeStyle=none;rounded=0;orthogonalLoop=1;jettySize=auto;html=1;exitX=0.5;exitY=1;exitDx=0;exitDy=0;entryX=0.5;entryY=0;entryDx=0;entryDy=0;" edge="1" parent="1" source="Hf8WnXUXcwpd4nh3hcgf-36" target="Hf8WnXUXcwpd4nh3hcgf-6">
          <mxGeometry relative="1" as="geometry" />
        </mxCell>
        <mxCell id="Hf8WnXUXcwpd4nh3hcgf-36" value="Tickets" style="rounded=1;whiteSpace=wrap;html=1;" vertex="1" parent="1">
          <mxGeometry x="440" y="260" width="120" height="60" as="geometry" />
        </mxCell>
        <mxCell id="Hf8WnXUXcwpd4nh3hcgf-41" style="edgeStyle=none;rounded=0;orthogonalLoop=1;jettySize=auto;html=1;exitX=1;exitY=0;exitDx=0;exitDy=15;exitPerimeter=0;entryX=0.009;entryY=0.627;entryDx=0;entryDy=0;entryPerimeter=0;" edge="1" parent="1" source="Hf8WnXUXcwpd4nh3hcgf-15" target="Hf8WnXUXcwpd4nh3hcgf-21">
          <mxGeometry relative="1" as="geometry" />
        </mxCell>
        <mxCell id="Hf8WnXUXcwpd4nh3hcgf-42" style="edgeStyle=none;rounded=0;orthogonalLoop=1;jettySize=auto;html=1;exitX=0;exitY=0;exitDx=0;exitDy=15;exitPerimeter=0;entryX=0.986;entryY=0.64;entryDx=0;entryDy=0;entryPerimeter=0;" edge="1" parent="1" source="Hf8WnXUXcwpd4nh3hcgf-16" target="Hf8WnXUXcwpd4nh3hcgf-17">
          <mxGeometry relative="1" as="geometry" />
        </mxCell>
        <mxCell id="Hf8WnXUXcwpd4nh3hcgf-53" style="edgeStyle=none;rounded=0;orthogonalLoop=1;jettySize=auto;html=1;exitX=0.5;exitY=0;exitDx=0;exitDy=0;entryX=0.5;entryY=1;entryDx=0;entryDy=0;" edge="1" parent="1" source="Hf8WnXUXcwpd4nh3hcgf-44" target="Hf8WnXUXcwpd4nh3hcgf-47">
          <mxGeometry relative="1" as="geometry" />
        </mxCell>
        <mxCell id="Hf8WnXUXcwpd4nh3hcgf-57" style="edgeStyle=none;rounded=0;orthogonalLoop=1;jettySize=auto;html=1;exitX=0;exitY=1;exitDx=0;exitDy=0;entryX=1;entryY=0;entryDx=0;entryDy=0;" edge="1" parent="1" source="Hf8WnXUXcwpd4nh3hcgf-44" target="Hf8WnXUXcwpd4nh3hcgf-50">
          <mxGeometry relative="1" as="geometry" />
        </mxCell>
        <mxCell id="Hf8WnXUXcwpd4nh3hcgf-59" style="edgeStyle=none;rounded=0;orthogonalLoop=1;jettySize=auto;html=1;exitX=0.75;exitY=1;exitDx=0;exitDy=0;entryX=0;entryY=0;entryDx=0;entryDy=0;" edge="1" parent="1" source="Hf8WnXUXcwpd4nh3hcgf-44" target="Hf8WnXUXcwpd4nh3hcgf-52">
          <mxGeometry relative="1" as="geometry" />
        </mxCell>
        <mxCell id="Hf8WnXUXcwpd4nh3hcgf-62" style="edgeStyle=none;rounded=0;orthogonalLoop=1;jettySize=auto;html=1;exitX=0.75;exitY=0;exitDx=0;exitDy=0;entryX=0;entryY=1;entryDx=0;entryDy=0;" edge="1" parent="1" source="Hf8WnXUXcwpd4nh3hcgf-44" target="Hf8WnXUXcwpd4nh3hcgf-61">
          <mxGeometry relative="1" as="geometry" />
        </mxCell>
        <mxCell id="Hf8WnXUXcwpd4nh3hcgf-44" value="Ticket" style="rounded=0;whiteSpace=wrap;html=1;" vertex="1" parent="1">
          <mxGeometry x="182.5" y="910" width="120" height="60" as="geometry" />
        </mxCell>
        <mxCell id="Hf8WnXUXcwpd4nh3hcgf-46" value="&lt;u&gt;ID&lt;/u&gt;" style="ellipse;whiteSpace=wrap;html=1;" vertex="1" parent="1">
          <mxGeometry x="110" y="810" width="72.5" height="40" as="geometry" />
        </mxCell>
        <mxCell id="Hf8WnXUXcwpd4nh3hcgf-47" value="Priorität" style="ellipse;whiteSpace=wrap;html=1;" vertex="1" parent="1">
          <mxGeometry x="200" y="800" width="72.5" height="40" as="geometry" />
        </mxCell>
        <mxCell id="Hf8WnXUXcwpd4nh3hcgf-48" value="LetzterKommentator" style="ellipse;whiteSpace=wrap;html=1;" vertex="1" parent="1">
          <mxGeometry x="30" y="870" width="118.75" height="50" as="geometry" />
        </mxCell>
        <mxCell id="Hf8WnXUXcwpd4nh3hcgf-49" value="Status" style="ellipse;whiteSpace=wrap;html=1;" vertex="1" parent="1">
          <mxGeometry x="60" y="940" width="72.5" height="40" as="geometry" />
        </mxCell>
        <mxCell id="Hf8WnXUXcwpd4nh3hcgf-50" value="ZugewiesenID" style="ellipse;whiteSpace=wrap;html=1;" vertex="1" parent="1">
          <mxGeometry x="80" y="1000" width="90" height="40" as="geometry" />
        </mxCell>
        <mxCell id="Hf8WnXUXcwpd4nh3hcgf-51" value="ZeitLetzterKommentar" style="ellipse;whiteSpace=wrap;html=1;" vertex="1" parent="1">
          <mxGeometry x="157.5" y="1040" width="130" height="40" as="geometry" />
        </mxCell>
        <mxCell id="Hf8WnXUXcwpd4nh3hcgf-52" value="ZeitLetzterKundenKommentar" style="ellipse;whiteSpace=wrap;html=1;" vertex="1" parent="1">
          <mxGeometry x="290" y="1000" width="180" height="50" as="geometry" />
        </mxCell>
        <mxCell id="Hf8WnXUXcwpd4nh3hcgf-54" style="edgeStyle=none;rounded=0;orthogonalLoop=1;jettySize=auto;html=1;exitX=0.25;exitY=0;exitDx=0;exitDy=0;entryX=0.731;entryY=0.975;entryDx=0;entryDy=0;entryPerimeter=0;" edge="1" parent="1" source="Hf8WnXUXcwpd4nh3hcgf-44" target="Hf8WnXUXcwpd4nh3hcgf-46">
          <mxGeometry relative="1" as="geometry" />
        </mxCell>
        <mxCell id="Hf8WnXUXcwpd4nh3hcgf-56" style="edgeStyle=none;rounded=0;orthogonalLoop=1;jettySize=auto;html=1;exitX=0;exitY=0.5;exitDx=0;exitDy=0;entryX=0.938;entryY=0.35;entryDx=0;entryDy=0;entryPerimeter=0;" edge="1" parent="1" source="Hf8WnXUXcwpd4nh3hcgf-44" target="Hf8WnXUXcwpd4nh3hcgf-49">
          <mxGeometry relative="1" as="geometry" />
        </mxCell>
        <mxCell id="Hf8WnXUXcwpd4nh3hcgf-58" style="edgeStyle=none;rounded=0;orthogonalLoop=1;jettySize=auto;html=1;exitX=0.25;exitY=1;exitDx=0;exitDy=0;entryX=0.419;entryY=-0.05;entryDx=0;entryDy=0;entryPerimeter=0;" edge="1" parent="1">
          <mxGeometry relative="1" as="geometry">
            <mxPoint x="222.53" y="970" as="sourcePoint" />
            <mxPoint x="222.00000000000003" y="1038" as="targetPoint" />
            <Array as="points">
              <mxPoint x="222.03" y="1010" />
            </Array>
          </mxGeometry>
        </mxCell>
        <mxCell id="Hf8WnXUXcwpd4nh3hcgf-60" style="edgeStyle=none;rounded=0;orthogonalLoop=1;jettySize=auto;html=1;exitX=0;exitY=0.25;exitDx=0;exitDy=0;entryX=0.935;entryY=0.78;entryDx=0;entryDy=0;entryPerimeter=0;" edge="1" parent="1" source="Hf8WnXUXcwpd4nh3hcgf-44" target="Hf8WnXUXcwpd4nh3hcgf-48">
          <mxGeometry relative="1" as="geometry" />
        </mxCell>
        <mxCell id="Hf8WnXUXcwpd4nh3hcgf-61" value="Deadtime" style="ellipse;whiteSpace=wrap;html=1;" vertex="1" parent="1">
          <mxGeometry x="302.5" y="810" width="72.5" height="40" as="geometry" />
        </mxCell>
        <mxCell id="Hf8WnXUXcwpd4nh3hcgf-65" style="edgeStyle=none;rounded=0;orthogonalLoop=1;jettySize=auto;html=1;exitX=0;exitY=0.5;exitDx=0;exitDy=0;entryX=1;entryY=0.5;entryDx=0;entryDy=0;" edge="1" parent="1" source="Hf8WnXUXcwpd4nh3hcgf-63" target="Hf8WnXUXcwpd4nh3hcgf-64">
          <mxGeometry relative="1" as="geometry" />
        </mxCell>
        <mxCell id="Hf8WnXUXcwpd4nh3hcgf-63" value="Mitarbeiter" style="rounded=0;whiteSpace=wrap;html=1;" vertex="1" parent="1">
          <mxGeometry x="630" y="910" width="120" height="60" as="geometry" />
        </mxCell>
        <mxCell id="Hf8WnXUXcwpd4nh3hcgf-66" style="edgeStyle=none;rounded=0;orthogonalLoop=1;jettySize=auto;html=1;exitX=0;exitY=0.5;exitDx=0;exitDy=0;entryX=1;entryY=0.5;entryDx=0;entryDy=0;" edge="1" parent="1" source="Hf8WnXUXcwpd4nh3hcgf-64" target="Hf8WnXUXcwpd4nh3hcgf-44">
          <mxGeometry relative="1" as="geometry" />
        </mxCell>
        <mxCell id="Hf8WnXUXcwpd4nh3hcgf-70" style="edgeStyle=none;rounded=0;orthogonalLoop=1;jettySize=auto;html=1;exitX=0.5;exitY=0;exitDx=0;exitDy=0;entryX=0;entryY=1;entryDx=0;entryDy=0;" edge="1" parent="1" source="Hf8WnXUXcwpd4nh3hcgf-64" target="Hf8WnXUXcwpd4nh3hcgf-68">
          <mxGeometry relative="1" as="geometry" />
        </mxCell>
        <mxCell id="Hf8WnXUXcwpd4nh3hcgf-64" value="bearbeitet" style="rhombus;whiteSpace=wrap;html=1;" vertex="1" parent="1">
          <mxGeometry x="425" y="900" width="80" height="80" as="geometry" />
        </mxCell>
        <mxCell id="Hf8WnXUXcwpd4nh3hcgf-67" value="&lt;u&gt;TicketID&lt;/u&gt;&lt;div&gt;FS&lt;/div&gt;" style="ellipse;whiteSpace=wrap;html=1;" vertex="1" parent="1">
          <mxGeometry x="390.5" y="840" width="70" height="40" as="geometry" />
        </mxCell>
        <mxCell id="Hf8WnXUXcwpd4nh3hcgf-68" value="&lt;u&gt;MitarbeiterID&lt;/u&gt;&lt;div&gt;FS&lt;/div&gt;" style="ellipse;whiteSpace=wrap;html=1;" vertex="1" parent="1">
          <mxGeometry x="480" y="835" width="80" height="50" as="geometry" />
        </mxCell>
        <mxCell id="Hf8WnXUXcwpd4nh3hcgf-69" style="edgeStyle=none;rounded=0;orthogonalLoop=1;jettySize=auto;html=1;exitX=0.5;exitY=0;exitDx=0;exitDy=0;entryX=0.707;entryY=1;entryDx=0;entryDy=0;entryPerimeter=0;" edge="1" parent="1" source="Hf8WnXUXcwpd4nh3hcgf-64" target="Hf8WnXUXcwpd4nh3hcgf-67">
          <mxGeometry relative="1" as="geometry" />
        </mxCell>
        <mxCell id="Hf8WnXUXcwpd4nh3hcgf-71" value="MitarbeiterID" style="ellipse;whiteSpace=wrap;html=1;" vertex="1" parent="1">
          <mxGeometry x="600" y="810" width="80" height="60" as="geometry" />
        </mxCell>
        <mxCell id="Hf8WnXUXcwpd4nh3hcgf-72" value="Name" style="ellipse;whiteSpace=wrap;html=1;" vertex="1" parent="1">
          <mxGeometry x="700" y="815" width="80" height="50" as="geometry" />
        </mxCell>
        <mxCell id="Hf8WnXUXcwpd4nh3hcgf-73" value="AvgResponseTime" style="ellipse;whiteSpace=wrap;html=1;" vertex="1" parent="1">
          <mxGeometry x="770" y="865" width="110" height="60" as="geometry" />
        </mxCell>
        <mxCell id="Hf8WnXUXcwpd4nh3hcgf-74" style="edgeStyle=none;rounded=0;orthogonalLoop=1;jettySize=auto;html=1;exitX=0.25;exitY=0;exitDx=0;exitDy=0;entryX=0.625;entryY=1.05;entryDx=0;entryDy=0;entryPerimeter=0;" edge="1" parent="1" source="Hf8WnXUXcwpd4nh3hcgf-63" target="Hf8WnXUXcwpd4nh3hcgf-71">
          <mxGeometry relative="1" as="geometry" />
        </mxCell>
        <mxCell id="Hf8WnXUXcwpd4nh3hcgf-75" style="edgeStyle=none;rounded=0;orthogonalLoop=1;jettySize=auto;html=1;exitX=0.75;exitY=0;exitDx=0;exitDy=0;entryX=0.4;entryY=1;entryDx=0;entryDy=0;entryPerimeter=0;" edge="1" parent="1" source="Hf8WnXUXcwpd4nh3hcgf-63" target="Hf8WnXUXcwpd4nh3hcgf-72">
          <mxGeometry relative="1" as="geometry" />
        </mxCell>
        <mxCell id="Hf8WnXUXcwpd4nh3hcgf-76" style="edgeStyle=none;rounded=0;orthogonalLoop=1;jettySize=auto;html=1;exitX=1;exitY=0.25;exitDx=0;exitDy=0;entryX=0.055;entryY=0.817;entryDx=0;entryDy=0;entryPerimeter=0;" edge="1" parent="1" source="Hf8WnXUXcwpd4nh3hcgf-63" target="Hf8WnXUXcwpd4nh3hcgf-73">
          <mxGeometry relative="1" as="geometry" />
        </mxCell>
        <mxCell id="Hf8WnXUXcwpd4nh3hcgf-77" value="ResponseTime" style="ellipse;whiteSpace=wrap;html=1;" vertex="1" parent="1">
          <mxGeometry x="480" y="980" width="85" height="55" as="geometry" />
        </mxCell>
        <mxCell id="Hf8WnXUXcwpd4nh3hcgf-78" style="edgeStyle=none;rounded=0;orthogonalLoop=1;jettySize=auto;html=1;exitX=1;exitY=1;exitDx=0;exitDy=0;entryX=0.294;entryY=0.073;entryDx=0;entryDy=0;entryPerimeter=0;" edge="1" parent="1" source="Hf8WnXUXcwpd4nh3hcgf-64" target="Hf8WnXUXcwpd4nh3hcgf-77">
          <mxGeometry relative="1" as="geometry" />
        </mxCell>
      </root>
    </mxGraphModel>
  </diagram>
</mxfile>
